HIERARCHY
ROOT Hips
{
	OFFSET 0.000000 97.167313 0.000000
	CHANNELS 6 Xposition Yposition Zposition Xrotation Yrotation Zrotation
	JOINT Spine
	{
		OFFSET 0.000000 13.784798 0.064400
		CHANNELS 3 Xrotation Yrotation Zrotation
		JOINT Spine1
		{
			OFFSET 0.000000 12.037903 0.404700
			CHANNELS 3 Xrotation Yrotation Zrotation
			JOINT Spine2
			{
				OFFSET 0.000000 17.795601 0.420200
				CHANNELS 3 Xrotation Yrotation Zrotation
				JOINT Neck
				{
					OFFSET 0.000000 39.131302 11.954600
					CHANNELS 3 Xrotation Yrotation Zrotation
					JOINT Head
					{
						OFFSET 0.000000 14.456192 15.627699
						CHANNELS 3 Xrotation Yrotation Zrotation
						JOINT HeadTop_End
						{
							OFFSET 0.000000 15.703506 7.603401
							CHANNELS 3 Xrotation Yrotation Zrotation
							End Site
							{
								OFFSET 0.000000 17.447403 0.000000
							}
						}
					}
				}
				JOINT LeftShoulder
				{
					OFFSET 17.399500 24.608795 1.168800
					CHANNELS 3 Xrotation Yrotation Zrotation
					JOINT LeftArm
					{
						OFFSET 18.980635 5.765305 1.818600
						CHANNELS 3 Xrotation Yrotation Zrotation
						JOINT LeftForeArm
						{
							OFFSET 49.290169 0.000000 0.000000
							CHANNELS 3 Xrotation Yrotation Zrotation
							JOINT LeftHand
							{
								OFFSET 31.562012 0.000000 0.000000
								CHANNELS 3 Xrotation Yrotation Zrotation
								JOINT LeftHandThumb1
								{
									OFFSET 6.133995 -4.388519 7.076070
									CHANNELS 3 Xrotation Yrotation Zrotation
									JOINT LeftHandThumb2
									{
										OFFSET 6.037666 -3.485840 3.485847
										CHANNELS 3 Xrotation Yrotation Zrotation
										JOINT LeftHandThumb3
										{
											OFFSET 6.496506 -3.750763 3.750761
											CHANNELS 3 Xrotation Yrotation Zrotation
											JOINT LeftHandThumb4
											{
												OFFSET 5.616882 -3.242905 3.242910
												CHANNELS 3 Xrotation Yrotation Zrotation
												End Site
												{
													OFFSET -1.254608 7.132141 0.375429
												}
											}
										}
									}
								}
								JOINT LeftHandPinky1
								{
									OFFSET 18.920792 -0.453171 -11.426712
									CHANNELS 3 Xrotation Yrotation Zrotation
									JOINT LeftHandPinky2
									{
										OFFSET 4.919586 0.000000 0.000000
										CHANNELS 3 Xrotation Yrotation Zrotation
										JOINT LeftHandPinky3
										{
											OFFSET 5.233047 0.000000 0.000000
											CHANNELS 3 Xrotation Yrotation Zrotation
											JOINT LeftHandPinky4
											{
												OFFSET 5.571716 0.000000 0.000000
												CHANNELS 3 Xrotation Yrotation Zrotation
												End Site
												{
													OFFSET -3.459808 4.342407 -0.466164
												}
											}
										}
									}
								}
								JOINT LeftHandRing1
								{
									OFFSET 22.726120 -0.094986 -6.500475
									CHANNELS 3 Xrotation Yrotation Zrotation
									JOINT LeftHandRing2
									{
										OFFSET 6.408615 0.000000 0.000000
										CHANNELS 3 Xrotation Yrotation Zrotation
										JOINT LeftHandRing3
										{
											OFFSET 6.150223 0.000000 0.000000
											CHANNELS 3 Xrotation Yrotation Zrotation
											JOINT LeftHandRing4
											{
												OFFSET 6.145386 0.000000 0.000000
												CHANNELS 3 Xrotation Yrotation Zrotation
												End Site
												{
													OFFSET -3.671402 4.923981 -0.202372
												}
											}
										}
									}
								}
								JOINT LeftHandMiddle1
								{
									OFFSET 23.373947 0.000000 0.000001
									CHANNELS 3 Xrotation Yrotation Zrotation
									JOINT LeftHandMiddle2
									{
										OFFSET 6.996567 0.000000 0.000000
										CHANNELS 3 Xrotation Yrotation Zrotation
										JOINT LeftHandMiddle3
										{
											OFFSET 7.015945 0.000000 0.000000
											CHANNELS 3 Xrotation Yrotation Zrotation
											JOINT LeftHandMiddle4
											{
												OFFSET 7.721573 0.000000 0.000000
												CHANNELS 3 Xrotation Yrotation Zrotation
												End Site
												{
													OFFSET -4.651108 6.158463 0.251582
												}
											}
										}
									}
								}
								JOINT LeftHandIndex1
								{
									OFFSET 21.310577 -0.490082 6.209344
									CHANNELS 3 Xrotation Yrotation Zrotation
									JOINT LeftHandIndex2
									{
										OFFSET 7.536453 0.000000 0.000000
										CHANNELS 3 Xrotation Yrotation Zrotation
										JOINT LeftHandIndex3
										{
											OFFSET 7.512344 0.000000 0.000000
											CHANNELS 3 Xrotation Yrotation Zrotation
											JOINT LeftHandIndex4
											{
												OFFSET 10.212402 0.000000 0.000001
												CHANNELS 3 Xrotation Yrotation Zrotation
												End Site
												{
													OFFSET -5.180801 8.690506 1.388433
												}
											}
										}
									}
								}
							}
						}
					}
				}
				JOINT RightShoulder
				{
					OFFSET -17.399500 24.608795 1.168800
					CHANNELS 3 Xrotation Yrotation Zrotation
					JOINT RightArm
					{
						OFFSET -18.980635 5.765305 1.818600
						CHANNELS 3 Xrotation Yrotation Zrotation
						JOINT RightForeArm
						{
							OFFSET -49.290169 0.000000 0.000000
							CHANNELS 3 Xrotation Yrotation Zrotation
							JOINT RightHand
							{
								OFFSET -31.562012 0.000000 0.000000
								CHANNELS 3 Xrotation Yrotation Zrotation
								JOINT RightHandThumb1
								{
									OFFSET -6.133995 -4.388519 7.076070
									CHANNELS 3 Xrotation Yrotation Zrotation
									JOINT RightHandThumb2
									{
										OFFSET -6.037666 -3.485840 3.485847
										CHANNELS 3 Xrotation Yrotation Zrotation
										JOINT RightHandThumb3
										{
											OFFSET -6.496506 -3.750763 3.750761
											CHANNELS 3 Xrotation Yrotation Zrotation
											JOINT RightHandThumb4
											{
												OFFSET -5.616882 -3.242905 3.242910
												CHANNELS 3 Xrotation Yrotation Zrotation
												End Site
												{
													OFFSET 1.254608 7.132141 0.375429
												}
											}
										}
									}
								}
								JOINT RightHandIndex1
								{
									OFFSET -21.310577 -0.490082 6.209344
									CHANNELS 3 Xrotation Yrotation Zrotation
									JOINT RightHandIndex2
									{
										OFFSET -7.536453 0.000000 0.000000
										CHANNELS 3 Xrotation Yrotation Zrotation
										JOINT RightHandIndex3
										{
											OFFSET -7.512344 0.000000 0.000000
											CHANNELS 3 Xrotation Yrotation Zrotation
											JOINT RightHandIndex4
											{
												OFFSET -10.212402 0.000000 0.000001
												CHANNELS 3 Xrotation Yrotation Zrotation
												End Site
												{
													OFFSET 5.180801 8.690506 1.388433
												}
											}
										}
									}
								}
								JOINT RightHandMiddle1
								{
									OFFSET -23.373947 0.000000 0.000001
									CHANNELS 3 Xrotation Yrotation Zrotation
									JOINT RightHandMiddle2
									{
										OFFSET -6.996567 0.000000 0.000000
										CHANNELS 3 Xrotation Yrotation Zrotation
										JOINT RightHandMiddle3
										{
											OFFSET -7.015945 0.000000 0.000000
											CHANNELS 3 Xrotation Yrotation Zrotation
											JOINT RightHandMiddle4
											{
												OFFSET -7.721573 0.000000 0.000000
												CHANNELS 3 Xrotation Yrotation Zrotation
												End Site
												{
													OFFSET 4.651108 6.158463 0.251582
												}
											}
										}
									}
								}
								JOINT RightHandRing1
								{
									OFFSET -22.726120 -0.094986 -6.500475
									CHANNELS 3 Xrotation Yrotation Zrotation
									JOINT RightHandRing2
									{
										OFFSET -6.408615 0.000000 0.000000
										CHANNELS 3 Xrotation Yrotation Zrotation
										JOINT RightHandRing3
										{
											OFFSET -6.150223 0.000000 0.000000
											CHANNELS 3 Xrotation Yrotation Zrotation
											JOINT RightHandRing4
											{
												OFFSET -6.145386 0.000000 0.000000
												CHANNELS 3 Xrotation Yrotation Zrotation
												End Site
												{
													OFFSET 3.671402 4.923981 -0.202372
												}
											}
										}
									}
								}
								JOINT RightHandPinky1
								{
									OFFSET -18.920792 -0.453171 -11.426712
									CHANNELS 3 Xrotation Yrotation Zrotation
									JOINT RightHandPinky2
									{
										OFFSET -4.919586 0.000000 0.000000
										CHANNELS 3 Xrotation Yrotation Zrotation
										JOINT RightHandPinky3
										{
											OFFSET -5.233047 0.000000 0.000000
											CHANNELS 3 Xrotation Yrotation Zrotation
											JOINT RightHandPinky4
											{
												OFFSET -5.571716 0.000000 0.000000
												CHANNELS 3 Xrotation Yrotation Zrotation
												End Site
												{
													OFFSET 3.459808 4.342407 -0.466164
												}
											}
										}
									}
								}
							}
						}
					}
				}
			}
		}
	}
	JOINT LeftUpLeg
	{
		OFFSET 19.899099 -7.885101 -3.429500
		CHANNELS 3 Xrotation Yrotation Zrotation
		JOINT LeftLeg
		{
			OFFSET 1.745560 -36.997807 10.304700
			CHANNELS 3 Xrotation Yrotation Zrotation
			JOINT LeftFoot
			{
				OFFSET -1.745558 -29.803308 -13.615400
				CHANNELS 3 Xrotation Yrotation Zrotation
				JOINT LeftToeBase
				{
					OFFSET 1.181900 -18.539904 15.226099
					CHANNELS 3 Xrotation Yrotation Zrotation
					JOINT LeftToe_End
					{
						OFFSET -0.863701 1.402801 16.534700
						CHANNELS 3 Xrotation Yrotation Zrotation
						End Site
						{
							OFFSET 0.000000 16.616566 0.000000
						}
					}
				}
			}
		}
	}
	JOINT RightUpLeg
	{
		OFFSET -19.899099 -7.885101 -3.429500
		CHANNELS 3 Xrotation Yrotation Zrotation
		JOINT RightLeg
		{
			OFFSET -1.745560 -36.997807 10.304700
			CHANNELS 3 Xrotation Yrotation Zrotation
			JOINT RightFoot
			{
				OFFSET 1.745558 -29.803308 -13.615400
				CHANNELS 3 Xrotation Yrotation Zrotation
				JOINT RightToeBase
				{
					OFFSET -1.181900 -18.539904 15.226099
					CHANNELS 3 Xrotation Yrotation Zrotation
					JOINT RightToe_End
					{
						OFFSET 0.863701 1.402801 16.534700
						CHANNELS 3 Xrotation Yrotation Zrotation
						End Site
						{
							OFFSET 0.000000 16.616566 0.000000
						}
					}
				}
			}
		}
	}
}
MOTION
Frames: 5
Frame Time: 0.033333
-36.051846 95.261086 46.845055 62.079651 57.656489 224.537360 3.415191 1.997257 0.228392 6.018582 1.452495 1.161975 6.049571 1.090521 1.167470 2.368615 -1.006535 -7.244858 16.759179 -19.597075 31.991435 0.000002 -0.000002 -0.000000 2.452852 -2.464113 3.312785 -27.196053 -3.220870 -23.470219 -0.000026 -82.180126 -0.000062 48.439504 -13.667276 -31.201445 -10.424476 -18.205728 -0.636070 10.176631 44.512995 3.475759 -4.019403 34.432240 21.462713 0.000002 0.000002 0.000001 14.704685 10.883582 -74.514939 5.264860 5.821723 -84.240077 1.128222 3.457861 -36.131486 -0.000000 0.000002 0.000001 6.557347 9.290435 -62.192301 5.339438 5.828723 -84.974759 0.633169 2.651014 -26.861148 0.000000 0.000002 0.000005 2.439928 7.061050 -53.487549 4.447987 5.680908 -76.102125 0.395521 2.117917 -21.154040 -0.000000 0.000001 0.000006 -1.609014 2.491788 -40.046301 4.447934 5.680904 -76.101565 0.395532 2.117907 -21.154047 -0.000003 -0.000000 0.000003 4.635148 9.756954 2.902075 -50.170069 -49.280942 15.587284 0.000054 67.422368 -0.000067 -23.601683 5.258347 -12.507739 -12.115046 20.642695 1.452731 10.194080 -47.224365 -3.977816 -2.718260 -41.494185 -22.059696 0.000002 0.000003 0.000002 -1.696634 -1.946566 40.469974 3.619104 -4.540261 77.107030 0.330879 -1.725717 21.706251 0.000002 -0.000001 -0.000001 1.962295 -6.041198 53.863012 3.673992 -4.552433 77.799522 0.330871 -1.725733 21.706246 -0.000001 0.000001 -0.000001 5.789506 -8.113527 62.061571 4.397516 -4.649925 86.800298 0.531733 -2.162882 27.620790 -0.000003 0.000001 -0.000003 13.821413 -9.745662 74.134491 4.340063 -4.646383 86.091475 0.950242 -2.821193 37.223506 -0.000003 0.000000 0.000001 -80.706417 -22.523556 46.033948 38.070546 6.840142 6.543006 -16.497951 29.248158 6.221977 3.522243 0.000002 0.000001 -0.000000 0.000000 -0.000001 -10.128451 -18.893370 -35.079339 70.040585 -3.445700 -3.101621 -0.412646 -10.353401 -10.880120 -2.231014 0.000002 -0.000017 0.000000 -0.000001 -0.000001 
-41.370762 93.110229 46.461151 54.653193 53.342507 233.972720 2.976080 2.675334 -2.346866 4.905814 1.619869 -1.325056 4.953403 1.244417 -1.348135 2.179706 -0.227437 -7.432112 14.093791 -16.297082 30.814364 0.000000 0.000001 0.000001 2.839807 -2.555722 3.768453 -35.648072 1.722970 -25.396619 0.002868 -89.115015 0.002799 45.544466 -7.227998 -27.637085 -10.509760 -18.256464 -0.666313 10.188877 44.602942 3.478718 -4.017248 34.523761 21.485111 0.000003 -0.000001 0.000002 14.718238 10.857317 -74.670155 5.286222 5.823834 -84.450679 1.135532 3.467843 -36.252578 -0.000000 0.000001 -0.000000 6.565616 9.286606 -62.301953 5.361470 5.830614 -85.191713 0.637129 2.658807 -26.946563 -0.000000 0.000001 0.000005 2.449025 7.067725 -53.601798 4.466182 5.685362 -76.285850 0.397873 2.123977 -21.217559 0.000001 0.000000 0.000004 -1.593544 2.522597 -40.140988 4.466060 5.685335 -76.284648 0.397879 2.123969 -21.217546 -0.000000 0.000001 -0.000001 4.474454 10.367770 4.013645 -52.793428 -44.711023 14.981754 0.000138 71.866656 -0.000131 -23.693525 5.293295 -6.638356 -11.643480 20.441281 1.315968 10.132039 -46.729767 -3.965794 -2.724296 -40.989632 -21.948702 -0.000002 -0.000002 0.000002 -1.834594 -1.700338 39.811380 3.569027 -4.528538 76.473578 0.321409 -1.701769 21.389770 -0.000003 -0.000001 -0.000001 1.920537 -6.010519 53.224830 3.590659 -4.533668 76.747414 0.321427 -1.701756 21.389743 -0.000001 -0.000001 -0.000007 5.815594 -8.153391 61.707276 4.304289 -4.643803 85.649582 0.515332 -2.131248 27.182652 -0.000002 0.000001 0.000000 13.767564 -9.779918 73.878154 4.245874 -4.639018 84.927774 0.919226 -2.779911 36.588330 -0.000003 0.000003 -0.000004 -87.139137 -25.366004 39.032588 39.761991 10.919300 8.381542 -14.010613 28.269163 8.796803 2.851867 -0.000013 0.000006 -0.000000 0.000002 0.000000 -4.227870 -26.527249 -22.122795 83.172122 -4.747051 2.337878 0.982857 -12.680974 -8.435579 -0.948174 -0.000007 0.000017 -0.000001 0.000000 -0.000003 
-46.272839 89.322975 44.222687 48.245974 47.581939 244.138336 2.460959 2.665451 -4.722263 3.840912 1.479289 -3.541639 3.889142 1.081920 -3.622211 1.716752 0.308863 -7.993194 11.249018 -14.088361 29.213535 -0.000002 -0.000001 -0.000000 3.221151 -3.512423 4.452402 -41.556309 4.219379 -29.884892 -0.000451 -97.997901 -0.000499 35.897439 5.000436 -14.007573 -9.784157 -17.820283 -0.415570 10.082143 43.828398 3.453489 -4.037256 33.731811 21.291926 0.000000 -0.000000 -0.000005 14.599729 11.259440 -73.372768 5.098846 5.802683 -82.600859 1.073462 3.381715 -35.213505 0.000006 0.000000 -0.000006 6.500386 9.322611 -61.360036 5.171360 5.811546 -83.317421 0.603570 2.591833 -26.214208 -0.000006 0.000000 0.000003 2.368594 7.007806 -52.619368 4.309302 5.644963 -74.696916 0.377965 2.071998 -20.673676 -0.000002 0.000000 0.000004 -1.690087 2.209823 -39.340056 4.309321 5.644951 -74.696909 0.377956 2.071996 -20.673681 -0.000002 0.000001 0.000001 4.404690 10.616205 4.418612 -56.914426 -39.779927 14.727947 0.000072 79.935691 -0.000065 -23.372672 5.880027 -1.218492 -6.819497 18.300495 0.146217 9.503809 -41.553317 -3.802760 -2.857216 -35.709790 -20.826992 0.000002 0.000002 -0.000000 -2.651044 0.945849 32.800314 3.054868 -4.373425 69.855671 0.230462 -1.448293 18.081121 -0.000002 -0.000002 -0.000004 1.505617 -5.662792 46.553552 2.769843 -4.258375 66.069574 0.230452 -1.448300 18.081133 0.000001 0.000000 -0.000008 6.005350 -8.569891 57.978662 3.372274 -4.476773 73.967759 0.358361 -1.793188 22.601231 0.000001 -0.000001 -0.000003 12.228001 -12.992467 71.604630 3.262333 -4.443822 72.554094 0.622437 -2.327927 29.936005 0.000001 -0.000001 -0.000003 -94.767714 -27.106837 29.251006 42.817349 13.390933 10.361253 -14.692628 27.393102 13.733243 3.662559 0.000004 0.000002 0.000000 0.000001 0.000000 1.534241 -32.614505 -9.790006 90.292902 -3.281174 10.136828 -1.170122 -9.463277 -2.678550 -0.047474 -0.000002 0.000012 -0.000007 -0.000001 0.000000 
-50.066185 84.948853 41.658920 41.104287 42.360014 256.507290 2.073853 2.336202 -6.781432 3.170339 1.654568 -5.406498 3.181211 1.211338 -5.571384 0.506515 0.523809 -8.462377 6.370648 -12.765899 22.768401 -0.000002 -0.000002 -0.000000 3.595579 -4.578412 5.825817 -45.089521 4.797591 -36.623109 -0.000139 -107.618947 -0.000176 15.533833 11.297492 10.031650 -7.419919 -16.354055 0.324614 9.734688 41.262481 3.358186 -4.124544 31.109299 20.661558 -0.000002 0.000001 -0.000002 13.973729 12.690493 -69.045378 4.482190 5.689211 -76.447521 0.879158 3.088559 -31.771564 0.000006 0.000002 -0.000002 6.263288 9.431617 -58.235593 4.547984 5.704583 -77.110008 0.498597 2.366900 -23.787717 -0.000000 -0.000000 -0.000000 2.110232 6.800005 -49.365766 3.798941 5.480555 -69.435594 0.315522 1.898410 -18.871439 0.000000 0.000001 0.000006 -1.907738 1.138801 -36.686425 3.798964 5.480555 -69.435594 0.315517 1.898417 -18.871437 -0.000002 -0.000000 0.000001 4.495597 10.528450 3.552647 -60.715232 -35.306218 16.450050 0.002822 90.300121 -0.002415 -22.691181 6.908352 3.395099 1.267132 14.425173 -0.788371 8.441083 -32.345993 -3.372635 -3.360780 -26.322694 -18.941074 0.000003 0.000001 0.000001 -2.611307 5.983516 20.327276 2.197559 -3.955903 58.092077 0.105328 -0.985950 12.196325 0.000000 -0.000001 -0.000001 0.878389 -4.934807 34.700230 1.491770 -3.417809 47.149691 0.105344 -0.985957 12.196323 0.000001 -0.000001 -0.000001 6.195273 -9.414448 51.329527 1.873558 -3.735197 53.263902 0.147723 -1.164826 14.453816 0.000001 -0.000002 -0.000003 8.676942 -18.842419 67.291843 1.699449 -3.598988 50.542471 0.231181 -1.450495 18.109570 0.000001 -0.000001 0.000004 -101.595089 -27.897930 20.753043 47.872868 15.196466 11.873159 -17.304733 26.663015 19.182817 -2.116571 0.000012 -0.000004 -0.000000 -0.000002 -0.000000 1.891053 -36.059704 -1.391043 90.044918 2.469772 16.093611 -1.518074 -3.347597 1.050061 -0.938716 0.000017 -0.000002 0.000003 0.000002 0.000001 
-52.792107 81.365646 39.613495 31.033326 37.353403 271.719514 1.868852 2.163982 -8.377059 2.856540 2.353250 -6.864207 2.773375 1.847600 -7.143549 -1.538831 0.613535 -7.896612 -0.486482 -10.572474 10.314764 -0.000001 0.000002 0.000001 3.968384 -5.075285 7.680825 -47.386483 4.097750 -43.491701 0.000005 -116.327670 -0.000031 -6.914870 0.739536 34.233386 -3.448143 -13.747520 1.283410 9.146690 36.801582 3.154212 -4.347987 26.551198 19.591366 0.000001 0.000005 -0.000001 12.320424 15.006269 -61.365930 3.451874 5.338103 -65.754989 0.584581 2.552894 -25.790736 0.000001 -0.000004 -0.000001 5.801899 9.590770 -52.794695 3.504884 5.361546 -66.323603 0.339070 1.965940 -19.570015 -0.000002 0.000000 0.000005 1.690794 6.405219 -43.713644 2.955411 5.086466 -60.294431 0.220086 1.592202 -15.738306 0.000000 -0.000002 0.000004 -2.068565 -0.745573 -32.063616 2.955416 5.086463 -60.294417 0.220068 1.592184 -15.738305 -0.000000 0.000000 -0.000001 4.677353 10.374693 1.724424 -62.386716 -31.012016 21.313809 0.000032 100.581031 0.000019 -20.892355 7.677030 7.044430 7.588117 11.298709 -0.515861 7.566332 -24.676702 -2.898920 -4.002913 -18.511758 -17.398619 0.000000 0.000000 0.000002 -1.099995 10.130701 9.768363 1.560869 -3.480516 48.297992 0.037762 -0.592424 7.292323 -0.000001 -0.000005 -0.000002 0.479936 -4.240396 24.835932 0.683132 -2.430159 31.397540 0.037748 -0.592420 7.292309 -0.000002 -0.000000 -0.000007 6.197586 -10.200676 45.769156 0.892203 -2.743179 36.027684 0.041704 -0.622553 7.665298 -0.000001 -0.000001 -0.000005 4.997180 -23.365174 63.293430 0.718426 -2.487026 32.220475 0.048403 -0.670412 8.258675 -0.000002 0.000001 0.000002 -104.492175 -28.880898 18.468458 54.167191 15.729432 12.578090 -19.847789 26.886903 22.564836 -6.682141 0.000009 0.000002 -0.000000 -0.000003 -0.000000 -4.580037 -38.403251 3.615157 85.481989 9.975691 15.733600 2.084964 0.852131 4.401452 -1.276254 0.000021 -0.000003 0.000003 0.000001 -0.000000 
